HIERARCHY
ROOT Hips
{
  OFFSET 126.96 91.9987 35.2002
  CHANNELS 6 Xposition Yposition Zposition Zrotation Xrotation Yrotation
  JOINT RightUpLeg
  {
    OFFSET -9.21262 -1.62705 0.0892923
    CHANNELS 3 Zrotation Xrotation Yrotation
    JOINT RightLeg
    {
      OFFSET 0.0960154 -41.8606 0.153467
      CHANNELS 3 Zrotation Xrotation Yrotation
      JOINT RightFoot
      {
        OFFSET 1.33859 -39.7491 3.70458
        CHANNELS 3 Zrotation Xrotation Yrotation
        End Site
        {
          OFFSET 0 -7.69 17.5
        }
      }
    }
  }
  JOINT LeftUpLeg
  {
    OFFSET 9.28909 -1.62806 0.0108209
    CHANNELS 3 Zrotation Xrotation Yrotation
    JOINT LeftLeg
    {
      OFFSET 0.0929201 -41.8886 0.0218006
      CHANNELS 3 Zrotation Xrotation Yrotation
      JOINT LeftFoot
      {
        OFFSET -1.57781 -41.3397 -3.31563
        CHANNELS 3 Zrotation Xrotation Yrotation
        End Site
        {
          OFFSET 0 -7.69 17.5
        }
      }
    }
  }
  JOINT Spine
  {
    OFFSET 0.0128959 14.3037 0.0259321
    CHANNELS 3 Zrotation Xrotation Yrotation
    JOINT Spine1
    {
      OFFSET 0.0143034 9.71252 0.015398
      CHANNELS 3 Zrotation Xrotation Yrotation
      JOINT Spine2
      {
        OFFSET 0.0468817 10.117 -0.0314137
        CHANNELS 3 Zrotation Xrotation Yrotation
        JOINT Spine3
        {
          OFFSET 0.0102655 9.71178 0.00221616
          CHANNELS 3 Zrotation Xrotation Yrotation
          JOINT Neck
          {
            OFFSET -0.0402596 10.3794 0.0231037
            CHANNELS 3 Zrotation Xrotation Yrotation
            JOINT Head
            {
              OFFSET -0.03453 9.49168 0.0708427
              CHANNELS 3 Zrotation Xrotation Yrotation
              End Site
              {
                OFFSET 0 15.95 0
              }
            }
          }
          JOINT RightShoulder
          {
            OFFSET -3.17991 6.93495 0.0309862
            CHANNELS 3 Zrotation Xrotation Yrotation
            JOINT RightArm
            {
              OFFSET -12.8253 0.0342167 0.035901
              CHANNELS 3 Zrotation Xrotation Yrotation
              JOINT RightForeArm
              {
                OFFSET -26.4423 -0.000685918 0.00421057
                CHANNELS 3 Zrotation Xrotation Yrotation
                JOINT RightHand
                {
                  OFFSET -25.9842 -0.0662606 -0.0268032
                  CHANNELS 3 Zrotation Xrotation Yrotation
                  JOINT RightHandThumb1
                  {
                    OFFSET -2.48905 0.190105 3.12053
                    CHANNELS 3 Zrotation Xrotation Yrotation
                    JOINT RightHandThumb2
                    {
                      OFFSET -3.68274 0 0
                      CHANNELS 3 Zrotation Xrotation Yrotation
                      JOINT RightHandThumb3
                      {
                        OFFSET -2.55832 0 0
                        CHANNELS 3 Zrotation Xrotation Yrotation
                        End Site
                        {
                          OFFSET -2.194 0 0
                        }
                      }
                    }
                  }
                  JOINT RightInHandIndex
                  {
                    OFFSET -3.22368 0.508421 1.97842
                    CHANNELS 3 Zrotation Xrotation Yrotation
                    JOINT RightHandIndex1
                    {
                      OFFSET -5.21684 -0.091368 0.999158
                      CHANNELS 3 Zrotation Xrotation Yrotation
                      JOINT RightHandIndex2
                      {
                        OFFSET -3.61937 0 0
                        CHANNELS 3 Zrotation Xrotation Yrotation
                        JOINT RightHandIndex3
                        {
                          OFFSET -2.0521 0 0
                          CHANNELS 3 Zrotation Xrotation Yrotation
                          End Site
                          {
                            OFFSET -1.805 0 0
                          }
                        }
                      }
                    }
                  }
                  JOINT RightInHandMiddle
                  {
                    OFFSET -3.38211 0.517263 0.756737
                    CHANNELS 3 Zrotation Xrotation Yrotation
                    JOINT RightHandMiddle1
                    {
                      OFFSET -5.17411 -0.084 0.313895
                      CHANNELS 3 Zrotation Xrotation Yrotation
                      JOINT RightHandMiddle2
                      {
                        OFFSET -3.94947 0 0
                        CHANNELS 3 Zrotation Xrotation Yrotation
                        JOINT RightHandMiddle3
                        {
                          OFFSET -2.47579 0 0
                          CHANNELS 3 Zrotation Xrotation Yrotation
                          End Site
                          {
                            OFFSET -1.975 0 0
                          }
                        }
                      }
                    }
                  }
                  JOINT RightInHandRing
                  {
                    OFFSET -3.36516 0.537895 -0.128947
                    CHANNELS 3 Zrotation Xrotation Yrotation
                    JOINT RightHandRing1
                    {
                      OFFSET -4.63474 -0.022105 -0.478947
                      CHANNELS 3 Zrotation Xrotation Yrotation
                      JOINT RightHandRing2
                      {
                        OFFSET -3.44238 0 0
                        CHANNELS 3 Zrotation Xrotation Yrotation
                        JOINT RightHandRing3
                        {
                          OFFSET -2.3881 0 0
                          CHANNELS 3 Zrotation Xrotation Yrotation
                          End Site
                          {
                            OFFSET -1.857 0 0
                          }
                        }
                      }
                    }
                  }
                  JOINT RightInHandPinky
                  {
                    OFFSET -3.16105 0.469368 -1.20179
                    CHANNELS 3 Zrotation Xrotation Yrotation
                    JOINT RightHandPinky1
                    {
                      OFFSET -4.14105 -0.022105 -1.09053
                      CHANNELS 3 Zrotation Xrotation Yrotation
                      JOINT RightHandPinky2
                      {
                        OFFSET -2.75653 0 0
                        CHANNELS 3 Zrotation Xrotation Yrotation
                        JOINT RightHandPinky3
                        {
                          OFFSET -1.74189 0 0
                          CHANNELS 3 Zrotation Xrotation Yrotation
                          End Site
                          {
                            OFFSET -1.645 0 0
                          }
                        }
                      }
                    }
                  }
                }
              }
            }
          }
          JOINT LeftShoulder
          {
            OFFSET 3.21113 6.90952 -0.0469957
            CHANNELS 3 Zrotation Xrotation Yrotation
            JOINT LeftArm
            {
              OFFSET 12.7919 -0.0331125 -0.0859637
              CHANNELS 3 Zrotation Xrotation Yrotation
              JOINT LeftForeArm
              {
                OFFSET 26.4755 -0.0026531 -0.0242133
                CHANNELS 3 Zrotation Xrotation Yrotation
                JOINT LeftHand
                {
                  OFFSET 25.9936 -0.03295 -0.105102
                  CHANNELS 3 Zrotation Xrotation Yrotation
                  JOINT LeftHandThumb1
                  {
                    OFFSET 2.48905 0.190105 3.12053
                    CHANNELS 3 Zrotation Xrotation Yrotation
                    JOINT LeftHandThumb2
                    {
                      OFFSET 3.68274 0 0
                      CHANNELS 3 Zrotation Xrotation Yrotation
                      JOINT LeftHandThumb3
                      {
                        OFFSET 2.55832 0 0
                        CHANNELS 3 Zrotation Xrotation Yrotation
                        End Site
                        {
                          OFFSET 2.194 0 0
                        }
                      }
                    }
                  }
                  JOINT LeftInHandIndex
                  {
                    OFFSET 3.22368 0.508421 1.97842
                    CHANNELS 3 Zrotation Xrotation Yrotation
                    JOINT LeftHandIndex1
                    {
                      OFFSET 5.21684 -0.091368 0.999158
                      CHANNELS 3 Zrotation Xrotation Yrotation
                      JOINT LeftHandIndex2
                      {
                        OFFSET 3.61937 0 0
                        CHANNELS 3 Zrotation Xrotation Yrotation
                        JOINT LeftHandIndex3
                        {
                          OFFSET 2.0521 0 0
                          CHANNELS 3 Zrotation Xrotation Yrotation
                          End Site
                          {
                            OFFSET 1.805 0 0
                          }
                        }
                      }
                    }
                  }
                  JOINT LeftInHandMiddle
                  {
                    OFFSET 3.38211 0.517263 0.756737
                    CHANNELS 3 Zrotation Xrotation Yrotation
                    JOINT LeftHandMiddle1
                    {
                      OFFSET 5.17411 -0.084 0.313895
                      CHANNELS 3 Zrotation Xrotation Yrotation
                      JOINT LeftHandMiddle2
                      {
                        OFFSET 3.94947 0 0
                        CHANNELS 3 Zrotation Xrotation Yrotation
                        JOINT LeftHandMiddle3
                        {
                          OFFSET 2.47579 0 0
                          CHANNELS 3 Zrotation Xrotation Yrotation
                          End Site
                          {
                            OFFSET 1.975 0 0
                          }
                        }
                      }
                    }
                  }
                  JOINT LeftInHandRing
                  {
                    OFFSET 3.36516 0.537895 -0.128947
                    CHANNELS 3 Zrotation Xrotation Yrotation
                    JOINT LeftHandRing1
                    {
                      OFFSET 4.63474 -0.022105 -0.478947
                      CHANNELS 3 Zrotation Xrotation Yrotation
                      JOINT LeftHandRing2
                      {
                        OFFSET 3.44238 0 0
                        CHANNELS 3 Zrotation Xrotation Yrotation
                        JOINT LeftHandRing3
                        {
                          OFFSET 2.3881 0 0
                          CHANNELS 3 Zrotation Xrotation Yrotation
                          End Site
                          {
                            OFFSET 1.857 0 0
                          }
                        }
                      }
                    }
                  }
                  JOINT LeftInHandPinky
                  {
                    OFFSET 3.16105 0.469368 -1.20179
                    CHANNELS 3 Zrotation Xrotation Yrotation
                    JOINT LeftHandPinky1
                    {
                      OFFSET 4.14105 -0.022105 -1.09053
                      CHANNELS 3 Zrotation Xrotation Yrotation
                      JOINT LeftHandPinky2
                      {
                        OFFSET 2.75653 0 0
                        CHANNELS 3 Zrotation Xrotation Yrotation
                        JOINT LeftHandPinky3
                        {
                          OFFSET 1.74189 0 0
                          CHANNELS 3 Zrotation Xrotation Yrotation
                          End Site
                          {
                            OFFSET 1.645 0 0
                          }
                        }
                      }
                    }
                  }
                }
              }
            }
          }
        }
      }
    }
  }
}
MOTION
Frames: 3
Frame Time: 0.00833333
6.000532436558705740e+02 -3.314328616984770198e-03 2.819456995712478764e-01 -2.654110282427953882e-01 -2.349518695629055839e-02 -1.686572692179847399e-01 6.571055292114674762e-01 9.805693896276135302e-01 7.577758311377325029e-01 -2.470885419070852906e-01 -3.181623249063303960e-01 1.484847092779881805e-01 1.038328881417881350e-01 -4.589941802099233303e-01 -4.828677035256813410e-02 -5.563360543104355349e-01 9.449485136741635483e-01 -8.770928114438485412e-01 -7.735240491797410467e-01 -3.874713352208041250e-01 1.081267907203842693e+00 1.109529198388678126e-02 -6.309791365478592540e-02 -3.033623129996010914e-01 -1.928330229642058469e-01 -4.262139123480070957e-01 -6.766627854867305336e-01 -5.152903951087091372e-02 -2.105244024230076838e-01 -1.651301549915638600e-01 -8.486214141083552043e-02 -2.322435447992304836e-01 -2.682883537804466867e-01 3.055763705211052284e-02 -3.596568730565009170e-02 7.199380307030237014e-02 3.629127890458281880e-01 -5.078002170321230940e-02 7.866533555448484982e-01 4.622117890433222742e-01 -9.538833654726048827e-01 1.349518284393984136e+00 -4.015519705689660768e-01 3.573828869726373147e-01 1.334408960328122562e-01 1.370290156542359972e+00 -3.596126926841866078e-01 -4.856453988171991476e+00 4.500660943225875066e+00 3.989400990293214821e-01 -4.337310547721881449e+01 2.637819348238756856e-01 1.867387941942553420e+00 1.324629577076155584e+00 0.000000000000000000e+00 0.000000000000000000e+00 0.000000000000000000e+00 1.400319475989701677e-17 -1.722466419835588239e-16 0.000000000000000000e+00 -7.998334186935358983e-16 1.234068964781156518e-15 0.000000000000000000e+00 -1.492406946258337554e-15 -6.189459789106682509e-16 2.079112775661834596e-16 0.000000000000000000e+00 0.000000000000000000e+00 0.000000000000000000e+00 0.000000000000000000e+00 1.723687956027321313e-15 8.467909299512578922e-16 0.000000000000000000e+00 5.484564239330954000e-16 -1.109507805811716531e-15 -1.492406946258337554e-15 -6.189459789106682509e-16 2.079112775661834596e-16 0.000000000000000000e+00 -7.754010458129323517e-16 -8.860221092313065835e-16 0.000000000000000000e+00 -6.758559705826207524e-16 -8.746740624216228527e-16 0.000000000000000000e+00 -7.610379029201995013e-16 7.400023269351048600e-16 -1.492406946258337554e-15 -6.189459789106682509e-16 2.079112775661834596e-16 0.000000000000000000e+00 0.000000000000000000e+00 0.000000000000000000e+00 0.000000000000000000e+00 -7.298990594817064138e-16 3.731576428973195212e-16 0.000000000000000000e+00 -6.361440599975920292e-17 -8.528377415508098033e-16 -1.492406946258337554e-15 -6.189459789106682509e-16 2.079112775661834596e-16 0.000000000000000000e+00 0.000000000000000000e+00 0.000000000000000000e+00 0.000000000000000000e+00 7.996432665746960526e-16 2.484659374593185755e-15 0.000000000000000000e+00 5.941889050876338652e-16 2.343665760006921912e-15 -1.498882251911544394e-01 1.346872057497167374e-01 -7.422722615386789791e-01 2.267079137096627228e+00 -2.161685023120422933e-01 -3.005920360513679057e+00 9.189412772809159691e+00 1.036312734885244558e+00 3.135215660165402873e+00 -9.536311187106431220e+00 -8.055713025483310474e+00 -7.465147442172544778e+00 0.000000000000000000e+00 0.000000000000000000e+00 0.000000000000000000e+00 3.799735535736403732e-15 -1.299171794057188392e-15 0.000000000000000000e+00 -1.397853976264460707e-15 -3.999088540632864778e-16 0.000000000000000000e+00 -4.572304669065648407e-16 -1.518211691197311352e-15 -3.326135482618557779e-16 0.000000000000000000e+00 0.000000000000000000e+00 0.000000000000000000e+00 0.000000000000000000e+00 -1.918031800695599994e-15 1.468950303722646920e-15 0.000000000000000000e+00 3.175372226789576676e-16 3.044312909754579288e-15 -4.572304669065648407e-16 -1.518211691197311352e-15 -3.326135482618557779e-16 0.000000000000000000e+00 -7.061032921783796089e-16 1.969539845171758764e-15 0.000000000000000000e+00 -7.076313939409370457e-16 3.322902604828460167e-15 0.000000000000000000e+00 3.011419412788649569e-16 3.313722369273296701e-15 -4.572304669065648407e-16 -1.518211691197311352e-15 -3.326135482618557779e-16 0.000000000000000000e+00 0.000000000000000000e+00 0.000000000000000000e+00 0.000000000000000000e+00 4.493429565449461989e-16 3.381925983647768602e-15 0.000000000000000000e+00 1.565817623651484590e-15 2.264631627885257167e-15 -4.572304669065648407e-16 -1.518211691197311352e-15 -3.326135482618557779e-16 0.000000000000000000e+00 0.000000000000000000e+00 0.000000000000000000e+00 0.000000000000000000e+00 -2.610036717109951182e-15 3.519651993656955183e-15 0.000000000000000000e+00 9.512688801118795848e-16 5.714446195492202161e-15
6.000515513280545292e+02 -6.082157720532569735e-03 2.382278685479683189e-01 -3.270434856192154793e-01 2.070329360470098828e-02 -1.910474511287972299e-01 5.615178645754517195e-01 1.115155431516030138e+00 6.968458021954618831e-01 -2.410231031302176863e-01 -3.267155021529319914e-01 1.317632359266950048e-01 9.409588547163585948e-02 -5.272631557666749291e-01 -4.548023395661175694e-02 -6.864366244561950214e-01 1.040763474467043537e+00 -9.786294762284752924e-01 -8.069591090708443382e-01 -4.233750581975973537e-01 1.119192654187721958e+00 -3.346839516325070263e-03 -6.174583031117783505e-02 -2.885893532333211331e-01 -2.299019625656570642e-01 -4.589865453194771350e-01 -6.863964689200425795e-01 -5.915504191253010552e-02 -2.241378537964980600e-01 -1.660731433921413536e-01 -9.730591245998340688e-02 -2.554524274432542486e-01 -2.691719877344840306e-01 3.523370150015083663e-02 -3.786213728170042397e-02 7.369300325969815879e-02 3.502627510626865059e-01 -6.525880768203676241e-02 1.003787582987981208e+00 5.575291156474960763e-01 -9.193566919859889053e-01 1.263120562948632841e+00 -3.998699381185632507e-01 3.367844322191169693e-01 2.406892895004148492e-01 9.712263494384392182e-01 -6.353925391899664099e-01 -5.100585701552991402e+00 4.547017398466799420e+00 8.969517303989158474e-01 -4.571683915296390666e+01 3.017344772356362892e-01 1.967195311426181092e+00 1.289784917262715158e+00 0.000000000000000000e+00 0.000000000000000000e+00 0.000000000000000000e+00 1.428954552400989324e-17 -1.548725170995227120e-16 0.000000000000000000e+00 -8.693599274977158565e-16 9.769223536747470840e-16 0.000000000000000000e+00 -1.515365677660424527e-15 -5.760082342037926188e-16 1.965348063589891045e-16 0.000000000000000000e+00 0.000000000000000000e+00 0.000000000000000000e+00 0.000000000000000000e+00 1.907085634782063754e-15 1.305116413011978665e-15 0.000000000000000000e+00 4.930872007292105003e-16 -6.576319443822386310e-16 -1.515365677660424527e-15 -5.760082342037926188e-16 1.965348063589891045e-16 0.000000000000000000e+00 -5.438265114172577805e-16 -9.342684920906375631e-16 0.000000000000000000e+00 -5.198190589932063159e-16 -5.784941732715953994e-16 0.000000000000000000e+00 -7.012452015076005386e-16 1.342273237123853397e-15 -1.515365677660424527e-15 -5.760082342037926188e-16 1.965348063589891045e-16 0.000000000000000000e+00 0.000000000000000000e+00 0.000000000000000000e+00 0.000000000000000000e+00 -4.827201872338166846e-16 8.359706169263638588e-16 0.000000000000000000e+00 9.695325680932004053e-17 -6.894347054100427829e-16 -1.515365677660424527e-15 -5.760082342037926188e-16 1.965348063589891045e-16 0.000000000000000000e+00 0.000000000000000000e+00 0.000000000000000000e+00 0.000000000000000000e+00 8.868506888763096259e-16 2.821001602252421521e-15 0.000000000000000000e+00 7.168002870495324970e-16 2.850498153741835102e-15 -1.142048356928388186e-01 1.045878128043438438e-01 -6.940923491852777349e-01 2.175227701412665304e+00 -3.427526264258327071e-01 -3.012860672766178638e+00 9.532363489446222360e+00 1.248336837984322489e+00 3.221257841037283853e+00 -9.684715826020699581e+00 -8.591776712865229371e+00 -7.968637283500280333e+00 0.000000000000000000e+00 0.000000000000000000e+00 0.000000000000000000e+00 3.810285717148776462e-15 -1.515536982233528231e-15 0.000000000000000000e+00 -1.464441727896623558e-15 -5.149243824618797691e-16 0.000000000000000000e+00 -3.430989205325588050e-16 -1.361454538702471561e-15 -2.869053297280408090e-16 0.000000000000000000e+00 0.000000000000000000e+00 0.000000000000000000e+00 0.000000000000000000e+00 -1.574275229218013510e-15 1.505694858694566479e-15 0.000000000000000000e+00 2.543401916106975497e-16 3.131551993464910018e-15 -3.430989205325588050e-16 -1.361454538702471561e-15 -2.869053297280408090e-16 0.000000000000000000e+00 -8.443640416054896555e-16 1.661036003980416999e-15 0.000000000000000000e+00 -4.789963171701492172e-16 3.536025516653160589e-15 0.000000000000000000e+00 4.597958530171162248e-16 2.965126251186043702e-15 -3.430989205325588050e-16 -1.361454538702471561e-15 -2.869053297280408090e-16 0.000000000000000000e+00 0.000000000000000000e+00 0.000000000000000000e+00 0.000000000000000000e+00 4.461450555065874074e-16 3.473646637868059390e-15 0.000000000000000000e+00 1.361196883970234464e-15 2.398030183530809678e-15 -3.430989205325588050e-16 -1.361454538702471561e-15 -2.869053297280408090e-16 0.000000000000000000e+00 0.000000000000000000e+00 0.000000000000000000e+00 0.000000000000000000e+00 -2.159836358029867489e-15 3.229031979545460684e-15 0.000000000000000000e+00 8.816521745955718609e-16 5.200773490875858520e-15
6.000510614146108992e+02 -9.123744489315292749e-03 1.942129358711245646e-01 -3.886730100671558219e-01 6.128265066563930163e-02 -2.180507683243930739e-01 4.860564411487971470e-01 1.245359119220750488e+00 6.560020738404915841e-01 -2.399667599893317571e-01 -3.336258807832587214e-01 1.199850690636062311e-01 8.605301050389491113e-02 -5.931618705037189354e-01 -4.486538049790765592e-02 -8.072157771118620984e-01 1.136766359077160837e+00 -1.070827087380343823e+00 -8.413943460503943150e-01 -4.546774184935129526e-01 1.157710140548882771e+00 -1.991511751200271060e-02 -6.244629375946336020e-02 -2.732295163138545036e-01 -2.703797986097136175e-01 -4.915211579118006213e-01 -6.854090062167179642e-01 -6.753241678083451993e-02 -2.367026883932983883e-01 -1.643728885315590138e-01 -1.110310019539337834e-01 -2.768543013292725785e-01 -2.657774163432775061e-01 4.010031998660278790e-02 -3.977428018360442546e-02 7.442472714905350173e-02 3.408168971255542967e-01 -7.863480062044445051e-02 1.203073175113384741e+00 6.543396020481719866e-01 -8.892926104850715774e-01 1.171332992307376308e+00 -4.057786306537890519e-01 3.108206233603093560e-01 3.386103254515666072e-01 5.840349986261468285e-01 -9.032893612820571683e-01 -5.329071261599463760e+00 4.546034873997122361e+00 1.392153583352863322e+00 -4.813930828252077276e+01 3.430517408924340095e-01 2.058241165100465064e+00 1.273649471406576250e+00 0.000000000000000000e+00 0.000000000000000000e+00 0.000000000000000000e+00 1.920037528244957431e-16 -1.418121164574700182e-16 0.000000000000000000e+00 -9.705742440696688592e-16 6.713740528326557032e-16 0.000000000000000000e+00 -1.514658884427106183e-15 -4.946868061342511701e-16 1.896693889404983914e-16 0.000000000000000000e+00 0.000000000000000000e+00 0.000000000000000000e+00 0.000000000000000000e+00 2.102963108073852123e-15 1.861589862240078583e-15 0.000000000000000000e+00 4.416330473086385980e-16 -1.911472953725114138e-16 -1.514658884427106183e-15 -4.946868061342511701e-16 1.896693889404983914e-16 0.000000000000000000e+00 -2.768269305621340122e-16 -9.040225996755083484e-16 0.000000000000000000e+00 -3.318159891733535135e-16 -2.474427381159109750e-16 0.000000000000000000e+00 -6.382451784368051101e-16 1.975334571938652948e-15 -1.514658884427106183e-15 -4.946868061342511701e-16 1.896693889404983914e-16 0.000000000000000000e+00 0.000000000000000000e+00 0.000000000000000000e+00 0.000000000000000000e+00 -1.955551594735121121e-16 1.352211218276446714e-15 0.000000000000000000e+00 2.661217128556236835e-16 -5.203816330542279247e-16 -1.514658884427106183e-15 -4.946868061342511701e-16 1.896693889404983914e-16 0.000000000000000000e+00 0.000000000000000000e+00 0.000000000000000000e+00 0.000000000000000000e+00 1.007988027789678201e-15 3.181772275369409377e-15 0.000000000000000000e+00 8.753370008408957367e-16 3.395849121711506221e-15 -8.111600646169840612e-02 7.381436484945982923e-02 -6.424133182858745572e-01 2.077598116156522678e+00 -4.686175569140510477e-01 -3.011665127708317957e+00 9.986523014134428777e+00 1.446737098829694146e+00 3.427526160920559839e+00 -9.811055225306311911e+00 -9.107379902593745413e+00 -8.472407908029630619e+00 0.000000000000000000e+00 0.000000000000000000e+00 0.000000000000000000e+00 3.809746500616214623e-15 -1.693677498968427103e-15 0.000000000000000000e+00 -1.408696424760967697e-15 -5.944409140246029592e-16 0.000000000000000000e+00 -2.407587876883979927e-16 -1.142038708086807547e-15 -2.199026008243708221e-16 0.000000000000000000e+00 0.000000000000000000e+00 0.000000000000000000e+00 0.000000000000000000e+00 -1.168698217100437972e-15 1.540876582270813156e-15 0.000000000000000000e+00 2.142210806591793569e-16 3.276292615368375321e-15 -2.407587876883979927e-16 -1.142038708086807547e-15 -2.199026008243708221e-16 0.000000000000000000e+00 -9.451280981630584799e-16 1.341891076143005614e-15 0.000000000000000000e+00 -2.344482912121324139e-16 3.736305747093221252e-15 0.000000000000000000e+00 6.068540852651561127e-16 2.560395474662029484e-15 -2.407587876883979927e-16 -1.142038708086807547e-15 -2.199026008243708221e-16 0.000000000000000000e+00 0.000000000000000000e+00 0.000000000000000000e+00 0.000000000000000000e+00 4.691818409867315049e-16 3.490904781154853625e-15 0.000000000000000000e+00 1.143486284220574707e-15 2.465996604506520228e-15 -2.407587876883979927e-16 -1.142038708086807547e-15 -2.199026008243708221e-16 0.000000000000000000e+00 0.000000000000000000e+00 0.000000000000000000e+00 0.000000000000000000e+00 -1.684831861103963571e-15 2.919654143561013249e-15 0.000000000000000000e+00 8.726371419476304609e-16 4.679602145241278001e-15
